<svg xmlns="http://www.w3.org/2000/svg" viewBox="0 0 64 64">
  <rect width="64" height="64" rx="14" fill="#24292f"/>
  <path fill="#fff" d="M32 12c-11 0-20 8.8-20 19.7 0 8.7 5.7 16.1 13.7 18.7 1 .2 1.4-.4 1.4-1v-3.6c-5.6 1.2-6.8-2.4-6.8-2.4-.9-2.3-2.2-2.9-2.2-2.9-1.8-1.2.1-1.2.1-1.2 2 .1 3.1 2 3.1 2 1.8 3 4.7 2.1 5.8 1.6.2-1.3.7-2.1 1.3-2.6-4.5-.5-9.2-2.2-9.2-9.8 0-2.2.8-3.9 2-5.3-.2-.5-.9-2.6.2-5.3 0 0 1.7-.5 5.5 2 1.6-.4 3.3-.7 5-.7s3.4.2 5 .7c3.8-2.5 5.5-2 5.5-2 1.1 2.7.4 4.8.2 5.3 1.3 1.4 2 3.1 2 5.3 0 7.6-4.7 9.3-9.2 9.8.7.6 1.4 1.9 1.4 3.8v5.6c0 .6.4 1.2 1.4 1C46.3 47.8 52 40.4 52 31.7 52 20.8 43 12 32 12z"/>
</svg>
